<svg version="1.1" id="Layer_1" xmlns="http://www.w3.org/2000/svg" xmlns:xlink="http://www.w3.org/1999/xlink" x="0px" y="0px"
	 width="100%" viewBox="0 0 500 500" enable-background="new 0 0 500 500" xml:space="preserve">
<path fill="none" opacity="1.000000" stroke="#000000" stroke-linecap="round" stroke-linejoin="round" stroke-width="19.000000"
	d="
M12.000000,412.000000 
	C66.833336,412.000000 121.666710,412.037781 176.499954,411.967041 
	C187.029877,411.953461 187.846756,411.030731 187.973999,400.499695 
	C188.094803,390.501160 188.000000,380.500000 188.000000,370.500000 
	C188.000000,369.166656 188.181244,367.803802 187.969574,366.504944 
	C186.880585,359.822479 184.171860,357.449951 177.503479,356.476135 
	C133.111328,349.993286 102.471397,326.196869 86.498070,284.000732 
	C79.982269,266.788177 78.568428,249.179688 81.436012,230.989914 
	C87.845993,190.329803 111.012108,162.617203 147.595886,145.707458 
	C157.313889,141.215622 168.022919,138.529236 178.999115,137.982300 
	C184.438171,137.711258 187.782410,133.916382 187.931229,126.998520 
	C188.182083,115.337250 188.178543,103.662788 187.925507,92.001617 
	C187.796829,86.071693 185.922180,84.537209 179.998703,84.014702 
	C178.841034,83.912575 177.666672,84.000000 176.500000,84.000000 
	C121.666664,84.000000 66.833336,84.000000 12.000000,84.000000 
"/>
<path fill="none" opacity="1.000000" stroke="#000000" stroke-linecap="round" stroke-linejoin="round" stroke-width="19.000000"
	d="
M491.000000,84.000000 
	C439.833344,84.000000 388.666504,84.067474 337.500153,83.942268 
	C327.437012,83.917648 325.984650,86.767509 325.997040,95.500008 
	C326.010284,104.833321 325.832672,114.170540 326.048737,123.498871 
	C326.250519,132.211166 327.793518,133.411407 335.996124,134.528458 
	C353.651031,136.932755 368.605743,144.755676 380.993835,157.505981 
	C392.264557,169.106262 399.133118,183.180481 400.799591,199.021088 
	C403.394806,223.690292 396.590607,245.505402 378.043915,263.046417 
	C365.706421,274.714874 351.249054,281.382599 334.505341,283.541504 
	C328.520050,284.313232 326.097321,287.595917 326.021149,294.500244 
	C325.931091,302.665894 326.000000,310.833344 326.000000,319.000000 
	C326.000000,346.166656 326.000000,373.333344 326.000000,400.500000 
	C326.000000,401.666656 325.912537,402.841064 326.014679,403.998718 
	C326.536713,409.915192 328.085083,411.463470 334.001312,411.985291 
	C335.158936,412.087372 336.333344,412.000000 337.500000,412.000000 
	C388.666656,412.000000 439.833344,412.000000 491.000000,412.000000 
"/>
<path fill="none" opacity="1.000000" stroke="#000000" stroke-linecap="round" stroke-linejoin="round" stroke-width="19.000000"
	d="
M254.749985,79.500000 
	C254.833328,81.166664 254.989441,82.833328 254.989609,84.500000 
	C255.001144,193.166672 255.001358,301.833344 254.989594,410.500000 
	C254.989380,412.500000 254.833328,414.500000 254.749985,416.500000 
"/>
</svg>