<svg version="1.1" id="Layer_1" xmlns="http://www.w3.org/2000/svg" xmlns:xlink="http://www.w3.org/1999/xlink" x="0px" y="0px"
	 width="100%" viewBox="0 0 500 500" enable-background="new 0 0 500 500" xml:space="preserve">
<path fill="none" opacity="1.000000" stroke="#000000" stroke-linecap="round" stroke-linejoin="round" stroke-width="12.000000"
	d="
M81.500000,342.750000 
	C122.833336,342.666656 164.166687,342.590912 205.499985,342.491486 
	C211.418961,342.477234 212.453323,341.419006 212.491730,335.499939 
	C212.529556,329.666840 212.558243,323.832611 212.483505,318.000214 
	C212.409668,312.237061 210.541519,309.864349 204.995468,309.030182 
	C182.949326,305.714081 166.384552,294.509003 155.499954,275.000031 
	C143.278473,253.094864 144.596741,224.923843 161.049271,203.537903 
	C172.854538,188.192734 188.506592,179.451233 207.998520,177.980438 
	C208.746857,177.923965 209.473480,177.579956 210.539307,177.276123 
	C214.254776,168.428207 211.966125,158.844955 212.381714,149.494736 
	C212.479309,147.299103 210.399734,145.767609 207.997574,145.523941 
	C206.677826,145.390076 205.333328,145.500000 204.000000,145.500000 
	C165.833328,145.500000 127.666565,145.534332 89.500206,145.426605 
	C86.811592,145.419022 84.196541,146.622620 81.500000,145.750000 
"/>
<path fill="none" opacity="1.000000" stroke="#000000" stroke-linecap="round" stroke-linejoin="round" stroke-width="12.000000"
	d="
M427.500000,145.500000 
	C386.166656,145.500000 344.833344,145.498566 303.500000,145.501343 
	C296.154144,145.501831 295.507019,146.154144 295.500946,153.500000 
	C295.496246,159.166672 295.612732,164.836380 295.459534,170.498901 
	C295.361023,174.138977 297.002197,175.776443 300.499359,176.009552 
	C322.092316,177.448792 341.117188,197.864334 340.490875,221.499756 
	C339.872894,244.819794 321.784760,262.776794 301.501099,265.010010 
	C296.167603,265.597260 294.982300,266.926453 295.015839,272.499908 
	C295.143188,293.666809 295.325775,314.833405 295.505463,335.999939 
	C295.548798,341.109100 296.484924,342.535553 303.000031,342.527191 
	C344.499969,342.473785 386.000000,342.500000 427.500000,342.500000 
"/>
<path fill="none" opacity="1.000000" stroke="#000000" stroke-linecap="round" stroke-linejoin="round" stroke-width="12.000000"
	d="
M252.500000,141.500000 
	C252.500000,209.333328 252.500000,277.166656 252.500000,345.000000 
"/>
</svg>